# xmcd
#
# Track frame offsets:
#	150
#	13060
#	24615
#	38135
#	51936
#	71317
#	91449
#	105288
#	120472
#	142729
#	155561
#	169573
#
# Disc length: 2512 seconds
#
# Revision: 0
# Processed by: cddbd v1.5.2PL0 Copyright (c) Steve Scherf et al.
# Submitted via: dBpowerAMP V4.0
#
DISCID=8d09ce0c
DTITLE=George Whitesell and His All Stars - Skat
DYEAR=2007
DGENRE=Big Band
TTITLE0=The Chicken And The Hawk
TTITLE1=Tell Mama
TTITLE2=Hide And Seek
TTITLE3=Baby
TTITLE4=Fever
TTITLE5=I Wonder In Whose Arms
TTITLE6=Fannie Mae
TTITLE7=Oke She Moke She Pop
TTITLE8=Why Don't You Do Right?
TTITLE9=I'm Tore Down
TTITLE10=Skat
TTITLE11=I Want To Know
EXTD=
EXTT0=
EXTT1=
EXTT2=
EXTT3=
EXTT4=
EXTT5=
EXTT6=
EXTT7=
EXTT8=
EXTT9=
EXTT10=
EXTT11=
PLAYORDER=
